# Alias OBJ Model File
# Exported from SketchUp, (c) 2000-2012 Trimble Navigation Limited
# File units = meters

mtllib bitswiftModel.mtl

g Mesh1 Group1 Model

usemtl M_0076_Green
v -0.0332299 0.625 -0.125
vt 12.1752 3.19744e-14
vn -2.73534e-19 9.90596e-14 -1
v 0.0332299 0.625 -0.125
vt 14.7918 -7.12858e-34
v 0.342481 0.38824 -0.125
vt 26.967 9.32127
v 0.342481 -0.13824 -0.125
vt 26.967 30.0488
v 0.0332299 -0.375 -0.125
vt 14.7918 39.3701
v -0.0332299 -0.375 -0.125
vt 12.1752 39.3701
v -0.342481 -0.13824 -0.125
vt 2.69226e-18 30.0488
v -0.342481 0.38824 -0.125
vt 2.69226e-18 9.32127
f 1/1/1 2/2/1 3/3/1 4/4/1 5/5/1 6/6/1 7/7/1 8/8/1 

v -0.0332299 0.625 0.125
vt 12.1752 -5.91116e-46
vn -1.22202e-14 1 9.90596e-14
v 0.0332299 0.625 0.125
vt 14.7918 6.78728e-18
vt 14.7918 9.84252
vt 12.1752 9.84252
f 9/9/2 10/10/2 2/11/2 1/12/2 

vt -14.7918 -1.98538e-52
vn 2.73534e-19 -9.90596e-14 1
vt -12.1752 3.19744e-14
v -0.342481 0.38824 0.125
vt 0 9.32127
v -0.342481 -0.13824 0.125
vt 0 30.0488
v -0.0332299 -0.375 0.125
vt -12.1752 39.3701
v 0.0332299 -0.375 0.125
vt -14.7918 39.3701
v 0.342481 -0.13824 0.125
vt -26.967 30.0488
v 0.342481 0.38824 0.125
vt -26.967 9.32127
f 10/13/3 9/14/3 11/15/3 12/16/3 13/17/3 14/18/3 15/19/3 16/20/3 

vt -5.66635 -1.23068e-18
vn -0.607894 0.794018 7.86553e-14
vt 9.66736 -1.23068e-18
vt 9.66736 9.84252
vt -5.66635 9.84252
f 11/21/4 9/22/4 1/23/4 8/24/4 

vt -9.32127 0
vn -1 0 -0
vt -9.32127 9.84252
vt -30.0488 9.84252
vt -30.0488 0
f 11/25/5 8/26/5 7/27/5 12/28/5 

vt -33.6002 3.96732e-18
vn -0.607894 -0.794018 -7.8655e-14
vt -18.2665 3.96732e-18
vt -18.2665 9.84252
vt -33.6002 9.84252
f 13/29/6 12/30/6 7/31/6 6/32/6 

vt -14.7918 6.78728e-18
vn 1.22202e-14 -1 -9.90596e-14
vt -12.1752 -1.28748e-31
vt -12.1752 9.84252
vt -14.7918 9.84252
f 14/33/7 13/34/7 6/35/7 5/36/7 

vt -3.14579 9.41298e-20
vn 0.607894 -0.794018 -7.86553e-14
vt 12.1879 9.41298e-20
vt 12.1879 9.84252
vt -3.14579 9.84252
f 15/37/8 14/38/8 5/39/8 4/40/8 

vt 9.32127 -5.89106e-19
vn 1 -8.57004e-17 -2.73534e-19
vt 30.0488 -5.89106e-19
vt 30.0488 9.84252
vt 9.32127 9.84252
f 16/41/9 15/42/9 4/43/9 3/44/9 

vt 11.7449 5.29212e-18
vn 0.607894 0.794018 7.8655e-14
vt 27.0786 5.29212e-18
vt 27.0786 9.84252
vt 11.7449 9.84252
f 10/45/10 16/46/10 3/47/10 2/48/10 

