# Alias OBJ Model File
# Exported from SketchUp, (c) 2000-2012 Trimble Navigation Limited
# File units = meters

mtllib ignis.mtl

g Mesh1 Model

usemtl M_0041_Chocolate
v 0.615453 0.404188 -0.117918
vt 4.64243 1.65905
vn 0.865909 0.500202 2.09844e-13
v 0.370879 0.827574 -0.117918
vt 4.64243 20.909
v 0.370879 0.827574 0.132082
vt -5.20009 20.909
v 0.615453 0.404188 0.132082
vt -5.20009 1.65905
f 1/1/1 2/2/1 3/3/1 4/4/1 

usemtl M_0038_Orange
vn -0.865909 -0.500202 -2.09844e-13
f 4/4/2 3/3/2 2/2/2 1/1/2 

usemtl M_0041_Chocolate
v -0.106129 -0.911274 0.132082
vt -4.17831 -35.8769
vn 0 -4.19519e-13 1
vt 24.2304 15.9129
vt 14.6015 32.5817
v -0.595079 -0.911274 0.132082
vt -23.4283 -35.8769
f 5/5/3 4/6/3 3/7/3 6/8/3 

usemtl M_0038_Orange
vn -0 4.19519e-13 -1
f 6/8/4 3/7/4 4/6/4 5/5/4 

usemtl M_0041_Chocolate
vt -4.64243 35.5727
vn -0.874172 0.485617 2.03725e-13
v -0.595079 -0.911274 -0.117918
vt -4.64243 -42.7398
vt 5.20009 -42.7398
vt 5.20009 35.5727
f 2/9/5 7/10/5 6/11/5 3/12/5 

usemtl M_0038_Orange
vn 0.874172 -0.485617 -2.03725e-13
f 3/12/6 6/11/6 7/10/6 2/9/6 

usemtl M_0041_Chocolate
vt 23.4283 4.64243
vn 0 -1 -4.19519e-13
v -0.106129 -0.911274 -0.117918
vt 4.17831 4.64243
vt 4.17831 -5.20009
vt 23.4283 -5.20009
f 7/13/7 8/14/7 5/15/7 6/16/7 

vt -24.2304 15.9129
vn 0 4.19519e-13 -1
vt 4.17831 -35.8769
vt 23.4283 -35.8769
vt -14.6015 32.5817
f 1/17/8 8/18/8 7/19/8 2/20/8 

usemtl M_0038_Orange
vn -0 -4.19519e-13 1
f 2/20/9 7/19/9 8/18/9 1/17/9 

vn -0 1 4.19519e-13
f 6/16/10 5/15/10 8/14/10 7/13/10 

usemtl M_0041_Chocolate
vt 4.64243 -33.4648
vn 0.876756 -0.480935 -2.01761e-13
vt 4.64243 25.605
vt -5.20009 25.605
vt -5.20009 -33.4648
f 8/21/11 1/22/11 4/23/11 5/24/11 

usemtl M_0038_Orange
vn -0.876756 0.480935 2.01761e-13
f 5/24/12 4/23/12 1/22/12 8/21/12 

g Mesh2 Model

v -0.211504 -0.111829 -0.117918
vt 8.32694 -4.40271
v -0.428636 0.270929 -0.117918
vt 16.8754 10.6665
v -0.106129 1.12317 -0.117918
vt 4.17831 44.2194
v 0.333623 0.881953 -0.117918
vt -13.1348 34.7225
f 9/25/8 10/26/8 11/27/8 12/28/8 

f 12/28/9 11/27/9 10/26/9 9/25/9 

vt 4.64243 5.18328
vn 0.480935 0.876756 3.67816e-13
vt 4.64243 24.93
v -0.106129 1.12317 0.132082
vt -5.20009 24.93
v 0.333623 0.881953 0.132082
vt -5.20009 5.18328
f 12/29/13 11/30/13 13/31/13 14/32/13 

vn -0.480935 -0.876756 -3.67816e-13
f 14/32/14 13/31/14 11/30/14 12/29/14 

v -0.428636 0.270929 0.132082
vt -16.8754 10.6665
v -0.211504 -0.111829 0.132082
vt -8.32694 -4.40271
vt 13.1348 34.7225
vt -4.17831 44.2194
f 15/33/3 16/34/3 14/35/3 13/36/3 

f 13/36/4 14/35/4 16/34/4 15/33/4 

vt 4.64243 -7.86482
vt 4.64243 36.7602
vt -5.20009 36.7602
vt -5.20009 -7.86482
f 9/37/11 12/38/11 14/39/11 16/40/11 

f 16/40/12 14/39/12 12/38/12 9/37/12 

vt -4.64243 17.6043
vn -0.869793 -0.493417 -2.06998e-13
vt -4.64243 0.279208
vt 5.20009 0.279208
vt 5.20009 17.6043
f 10/41/15 9/42/15 16/43/15 15/44/15 

vn 0.869793 0.493417 2.06998e-13
f 15/44/16 16/43/16 9/42/16 10/41/16 

vt -4.64243 39.8784
vn -0.935273 0.353927 1.48479e-13
vt -4.64243 4.00344
vt 5.20009 4.00344
vt 5.20009 39.8784
f 11/45/17 10/46/17 15/47/17 13/48/17 

vn 0.935273 -0.353927 -1.48479e-13
f 13/48/18 15/47/18 10/46/18 11/45/18 

g Mesh3 Model

usemtl M_0021_DarkRed
v -0.0611205 -0.911274 -0.117918
vt -2.40632 -35.8769
v 0.58445 -0.519824 -0.117918
vt 23.0098 -20.4655
v 0.326083 -0.185814 -0.117918
vt 12.8379 -7.31552
f 17/49/3 18/50/3 19/51/3

f 19/51/4 18/50/4 17/49/4

vt 4.64243 -30.2662
vn 0.790978 0.611844 2.5668e-13
vt 4.64243 -13.6412
v 0.326083 -0.185814 0.132082
vt -5.20009 -13.6412
v 0.58445 -0.519824 0.132082
vt -5.20009 -30.2662
f 18/52/19 19/53/19 20/54/19 21/55/19 

vn -0.790978 -0.611844 -2.5668e-13
f 21/55/20 20/54/20 19/53/20 18/52/20 

v -0.0611205 -0.911274 0.132082
f 22/49/3 21/50/3 20/51/3

f 20/51/4 21/50/4 22/49/4

vt 4.64243 -20.6594
vn 0.51849 -0.855084 -3.58723e-13
vt 4.64243 9.06416
vt -5.20009 9.06416
vt -5.20009 -20.6594
f 17/56/21 18/57/21 21/58/21 22/59/21 

vn -0.51849 0.855084 3.58723e-13
f 22/59/22 21/58/22 18/57/22 17/56/22 

vt -4.64243 -0.408864
vn -0.882205 0.470865 1.97536e-13
vt -4.64243 -32.7839
vt 5.20009 -32.7839
vt 5.20009 -0.408864
f 19/60/23 17/61/23 22/62/23 20/63/23 

vn 0.882205 -0.470865 -1.97536e-13
f 20/63/24 22/62/24 17/61/24 19/60/24 

